<?xml version="1.0" encoding="utf-8"?>
<!-- Svg Vector Icons : http://www.onlinewebfonts.com/icon -->
<!DOCTYPE svg PUBLIC "-//W3C//DTD SVG 1.1//EN" "http://www.w3.org/Graphics/SVG/1.1/DTD/svg11.dtd">
<svg version="1.1" xmlns="http://www.w3.org/2000/svg" xmlns:xlink="http://www.w3.org/1999/xlink" x="0px" y="0px" viewBox="0 0 1000 1000" enable-background="new 0 0 1000 1000" xml:space="preserve">
<metadata> Svg Vector Icons : http://www.onlinewebfonts.com/icon </metadata>
<g><g transform="translate(0.000000,511.000000) scale(0.100000,-0.100000)"><path d="M1225.5,4980.4c-217.4-59.3-426.9-223.3-529.6-419c-130.4-245.1-122.5,67.2-122.5-4444.5c0-2922.8,5.9-4124.3,21.7-4199.4c49.4-235.2,221.3-470.3,432.8-594.8c205.5-118.6-19.8-112.7,3972.2-112.7c2387.2,0,3675.7,7.9,3733,21.7c233.2,53.4,464.4,227.3,571.1,428.9c130.4,245,122.5-71.1,122.5,4450.4s7.9,4205.3-122.5,4450.4c-106.7,201.6-337.9,375.5-571.1,428.8c-57.3,13.8-1345.8,19.8-3742.9,19.8C1836.1,5010,1318.4,5006.1,1225.5,4980.4z M8740.9,4683.9c118.6-39.5,258.9-166,326.1-292.5l53.4-100.8l5.9-972.3l5.9-974.3H5000H869.8v936.7c0,1096.8-2,1077,177.9,1258.8c187.7,189.7-203.5,171.9,3944.5,173.9C8270.6,4715.6,8657.9,4711.6,8740.9,4683.9z M9126.3-1009.5l-5.9-3059.2l-53.4-100.8c-29.6-55.4-94.9-138.3-144.3-181.8c-175.9-154.2,154.2-142.3-3922.7-142.3s-3746.9-11.9-3922.7,142.3c-49.4,43.5-114.6,126.4-144.3,181.8l-53.4,100.8l-5.9,3059.2l-4,3057.2H5000h4130.2L9126.3-1009.5z"/><path d="M6448.5,4021.9c-243.1-45.4-399.2-237.1-401.2-488.1c0-148.2,29.6-229.2,132.4-339.9c98.8-112.6,201.6-158.1,357.7-158.1c207.5,0,351.8,83,448.6,258.9C7185.7,3664.2,6861.6,4102.9,6448.5,4021.9z"/><path d="M7845.7,4025.9c-191.7-37.5-353.7-197.6-397.2-387.3c-71.2-316.2,162-602.7,490.1-602.7c146.2,0,227.3,29.6,332,120.5c144.3,128.5,203.5,341.9,144.3,535.5C8349.6,3911.2,8076.9,4071.3,7845.7,4025.9z"/><path d="M1656.3,3915.2c-29.6-17.8-63.2-47.4-75.1-69.2c-9.9-19.8-19.8-164-19.8-320.1c0-302.4,11.9-337.9,112.6-389.3c29.6-15.8,328-21.7,974.3-21.7c994,0,1015.8,2,1067.1,96.8c9.9,21.7,19.8,166,19.8,326.1c0,274.7-2,288.5-47.4,341.9l-47.4,55.3l-966.4,4C1849.9,3942.9,1701.7,3938.9,1656.3,3915.2z"/><path d="M4753,1314.5C3697.7,1215.7,2794.6,443,2527.8-590.5c-81-314.2-100.8-727.2-47.4-1039.5c88.9-537.5,330-1009.8,711.4-1391.2c294.4-298.4,616.6-496,1025.6-632.4c1322.1-440.7,2772.6,304.3,3213.3,1648.1c142.3,436.7,158.1,962.4,41.5,1415c-73.1,288.5-241.1,640.3-413,873.5C6521.7,1008.2,5646.2,1399.5,4753,1314.5z M5448.6,992.4c841.8-179.8,1523.6-822.1,1733.1-1634.3c65.2-254.9,75.1-328,41.5-341.9c-144.3-55.3-462.4-15.8-658.1,79c-128.5,63.2-343.9,258.9-413,377.5l-49.4,85l-53.4-75.1c-175.9-241.1-515.8-422.9-899.2-480.2c-264.8-39.5-630.4,45.5-897.2,207.5c-108.7,67.2-296.4,243.1-334,314.2c-15.8,29.6-27.7,21.7-81-63.2c-85-130.4-274.7-302.4-403.2-365.6c-148.2-73.1-373.5-116.6-519.7-100.8c-175.9,17.8-175.9,15.8-138.3,199.6c130.4,636.3,484.2,1150.1,1037.5,1507.8c225.3,144.3,592.9,276.7,893.2,318.2C4877.5,1043.8,5274.7,1028,5448.6,992.4z"/></g></g>
</svg>